HIERARCHY
ROOT Hips
{
	OFFSET 0.00000 0.00000 0.00000
	CHANNELS 6 Xposition Yposition Zposition Zrotation Yrotation Xrotation 
	JOINT LHipJoint
	{
		OFFSET 0 0 0
		CHANNELS 3 Zrotation Yrotation Xrotation
		JOINT LeftHip
		{
			OFFSET 1.23340 -1.80723 0.69510
			CHANNELS 3 Zrotation Yrotation Xrotation
			JOINT LeftKnee
			{
				OFFSET 2.50056 -6.87023 0.00000
				CHANNELS 3 Zrotation Yrotation Xrotation
				JOINT LeftAnkle
				{
					OFFSET 2.85931 -7.85591 0.00000
					CHANNELS 3 Zrotation Yrotation Xrotation
					JOINT LeftToe
					{
						OFFSET 0.21001 -0.57700 2.07823
						CHANNELS 3 Zrotation Yrotation Xrotation
						End Site
						{
							OFFSET 0.00000 -0.00000 1.08338
						}
					}
				}
			}
		}
	}
	JOINT RHipJoint
	{
		OFFSET 0 0 0
		CHANNELS 3 Zrotation Yrotation Xrotation
		JOINT RightHip
		{
			OFFSET -1.40842 -1.80723 0.69510
			CHANNELS 3 Zrotation Yrotation Xrotation
			JOINT RightKnee
			{
				OFFSET -2.54876 -7.00266 0.00000
				CHANNELS 3 Zrotation Yrotation Xrotation
				JOINT RightAnkle
				{
					OFFSET -2.74835 -7.55104 0.00000
					CHANNELS 3 Zrotation Yrotation Xrotation
					JOINT RightToe
					{
						OFFSET -0.22633 -0.62184 2.00890
						CHANNELS 3 Zrotation Yrotation Xrotation
						End Site
						{
							OFFSET -0.00000 -0.00000 1.05493
						}
					}
				}
			}
		}
	}
	JOINT lowerback
	{
		OFFSET 0 0 0
		CHANNELS 3 Zrotation Yrotation Xrotation
		JOINT Chest
		{
			OFFSET -0.02340 2.02740 -0.12728
			CHANNELS 3 Zrotation Yrotation Xrotation
			JOINT Chest2
			{
				OFFSET -0.00862 2.03614 -0.01188
				CHANNELS 3 Zrotation Yrotation Xrotation
				JOINT lowerneck
				{
					OFFSET 0 0 0
					CHANNELS 3 Zrotation Yrotation Xrotation
					JOINT Neck
					{
						OFFSET 0.03380 1.76650 0.27670
						CHANNELS 3 Zrotation Yrotation Xrotation
						JOINT Head
						{
							OFFSET -0.01114 1.80516 -0.21451
							CHANNELS 3 Zrotation Yrotation Xrotation
							End Site
							{
								OFFSET -0.00766 1.81942 -0.10287
							}
						}
					}
				}
				JOINT LeftCollar
				{
					OFFSET 0 0 0
					CHANNELS 3 Zrotation Yrotation Xrotation
					JOINT LeftShoulder
					{
						OFFSET 3.22358 1.39475 0.18630
CHANNELS 3 Zrotation Xrotation Yrotation
						JOINT LeftElbow
						{
OFFSET 0 -5.450770 0.000000
CHANNELS 3 Zrotation Xrotation Yrotation
							JOINT LeftWrist
							{
OFFSET 0 -3.054880 0.000000
CHANNELS 3 Zrotation Xrotation Yrotation
								JOINT lhand
								{
									OFFSET 0 0 0
CHANNELS 3 Zrotation Xrotation Yrotation
									JOINT LFingers
									{
OFFSET 0 -0.638820 0.000000
CHANNELS 3 Zrotation Xrotation Yrotation
										End Site
										{
OFFSET 0 -0.515030 0.000000
										}
									}
								}
								JOINT LThumb
								{
OFFSET 0 0.000000 0.000000
CHANNELS 3 Zrotation Xrotation Yrotation
									End Site
									{
OFFSET 0 -0.522900 0.522900
									}
								}
							}
						}
					}
				}
				JOINT RightCollar
				{
					OFFSET 0 0 0
					CHANNELS 3 Zrotation Yrotation Xrotation
					JOINT RightShoulder
					{
						OFFSET -3.57143 1.14055 0.30691
CHANNELS 3 Zrotation Xrotation Yrotation
						JOINT RightElbow
						{
OFFSET 0 -4.887020 -0.000000
CHANNELS 3 Zrotation Xrotation Yrotation
							JOINT RightWrist
							{
OFFSET 0 -3.226030 0.000000
CHANNELS 3 Zrotation Xrotation Yrotation
								JOINT rhand
								{
									OFFSET 0 0 0
CHANNELS 3 Zrotation Xrotation Yrotation
									JOINT RFingers
									{
OFFSET 0 -0.716290 0.000000
CHANNELS 3 Zrotation Xrotation Yrotation
										End Site
										{
OFFSET 0 -0.577490 0.000000
										}
									}
								}
								JOINT RThumb
								{
OFFSET 0 0.000000 0.000000
CHANNELS 3 Zrotation Xrotation Yrotation
									End Site
									{
OFFSET 0 -0.586310 0.586310
									}
								}
							}
						}
					}
				}
			}
		}
	}
}
MOTION
Frames: 11
Frame Time: 0.008333333333333333
1.511300 18.535200 0.690700 150.511000 84.928500 161.850000 0.000000 0.000000 0.000000 -18.845500 1.971600 -15.960500 0.582300 4.886300 13.584500 -0.028800 -10.744300 -7.078400 1.492900 -7.718700 -21.862800 0.000000 0.000000 0.000000 15.407500 -2.776600 -11.038600 -0.135800 -2.375100 6.543600 -0.084300 6.777200 -6.596100 -0.353800 3.821500 -10.574900 -1.317100 -1.306900 -9.138800 -0.620400 -1.511900 -2.792500 -0.063800 -0.717100 2.244100 0.962400 -0.867700 -17.677100 -0.243200 -1.316200 19.072700 -0.402800 -0.534200 8.882500 0.000000 0.000000 0.000000 7.817000 5.811400 -24.606200 25.609600 -36.820600 8.652600 35.009200 -189.719700 24.070200 0.000000 0.000000 0.000000 -7.125000 0.000000 0.000000 3.429800 1.417600 3.350000 0.000000 0.000000 0.000000 -1.054600 6.358200 45.926900 -14.886300 -23.987500 -3.179600 -18.235800 -0.544900 -7.694100 0.000000 0.000000 0.000000 7.125000 0.000000 -0.000000 6.245500 21.901500 3.485300
1.518706 18.535985 0.697341 154.437424 84.808521 165.894514 0.000000 0.000000 0.000000 -18.544451 2.008873 -16.397376 0.619324 5.036236 14.012047 -0.039688 -11.015450 -7.107668 1.543051 -7.841188 -22.232804 0.000000 0.000000 0.000000 15.801935 -3.180179 -10.552032 -0.090512 -1.940439 5.340994 -0.066930 6.498006 -6.104803 -0.348898 3.795412 -10.501838 -1.021153 -1.051144 -9.323649 -0.741602 -1.187725 -2.884793 -0.321803 -0.553011 2.238929 0.568639 -1.281641 -17.765442 0.389573 -1.922006 19.147851 -0.200016 -0.775331 8.931623 0.000000 0.000000 0.000000 7.643026 5.935184 -24.759813 25.344663 -36.554202 8.494382 35.733647 -189.901831 24.715094 0.000000 0.000000 0.000000 -7.125000 0.000000 0.000000 3.736583 0.481431 3.713002 0.000000 0.000000 0.000000 -0.527738 6.841867 43.871439 -14.474445 -23.408925 -3.014082 -17.316746 -0.905011 -8.268521 0.000000 0.000000 0.000000 7.125000 0.000000 0.000000 6.903038 21.349820 3.944358
1.534494 18.534600 0.705803 158.204571 84.222595 169.479362 0.000000 0.000000 0.000000 -18.296531 1.686678 -16.275581 0.642382 5.127427 14.272482 -0.046660 -11.388291 -7.283545 1.641876 -8.076083 -22.945590 0.000000 0.000000 0.000000 16.089611 -4.026184 -10.065397 -0.069839 -1.704652 4.690137 -0.063576 6.401552 -5.983555 -0.343782 3.767543 -10.423608 -1.012450 -0.833637 -9.432977 -0.966604 -0.887782 -2.867980 -0.527527 -0.402685 2.312124 0.228287 -1.763066 -18.199932 1.145060 -2.670134 19.376263 0.013266 -1.060747 9.105238 0.000000 0.000000 0.000000 7.620483 5.317756 -25.050374 25.444605 -36.654968 8.553922 35.302023 -189.949008 24.195723 0.000000 0.000000 0.000000 -7.125000 0.000000 0.000000 3.580742 1.193395 3.512358 0.000000 0.000000 0.000000 -0.316865 7.160617 43.287431 -14.785145 -23.845887 -3.138585 -16.166332 1.132784 -8.612970 0.000000 0.000000 0.000000 7.125000 0.000000 0.000000 7.726015 21.052269 4.475265
1.545995 18.533295 0.709359 161.730578 83.711504 172.765309 0.000000 0.000000 0.000000 -18.031864 1.784207 -16.146915 0.647464 5.147296 14.328997 -0.086077 -12.009884 -7.168580 1.637718 -8.066356 -22.916054 0.000000 0.000000 0.000000 16.434172 -4.811375 -9.488192 -0.048673 -1.423624 3.915193 -0.055818 6.324260 -5.774820 -0.372271 3.917982 -10.846193 -1.180994 -0.745566 -9.648507 -0.981041 -0.748615 -2.805068 -0.435296 -0.333767 2.498302 -0.039591 -2.094379 -18.209380 1.850478 -3.210711 19.074576 0.228949 -1.258401 9.023995 0.000000 0.000000 0.000000 7.286252 4.996029 -25.236350 25.786459 -36.997059 8.758800 36.416921 -192.135979 25.966149 0.000000 0.000000 0.000000 -7.125000 0.000000 0.000000 3.885171 -1.138272 3.970689 0.000000 0.000000 0.000000 -0.214152 6.447477 40.181416 -18.223115 -28.440855 -4.655551 -11.385248 -6.015823 -4.858629 0.000000 0.000000 0.000000 7.125000 0.000000 0.000000 11.412206 25.014534 5.622725
1.544530 18.537297 0.712091 161.360239 84.155074 172.200938 0.000000 0.000000 0.000000 -17.905386 1.509289 -15.681752 0.643012 5.129948 14.279675 -0.012542 -11.187098 -7.657776 1.744311 -8.311837 -23.665486 0.000000 0.000000 0.000000 16.453889 -4.548845 -8.869033 -0.033816 -1.187379 3.264537 -0.050894 6.012542 -5.499754 -0.362140 3.864976 -10.697163 -1.535985 -0.938944 -9.816553 -0.851562 -0.968150 -2.925688 -0.128911 -0.440814 2.474322 0.601589 -1.566754 -17.794699 1.565342 -2.585366 18.709693 0.111496 -0.959125 8.804886 0.000000 0.000000 0.000000 7.433528 5.882679 -25.234038 26.381147 -37.582614 9.119149 36.819767 -193.384022 25.742935 0.000000 0.000000 0.000000 -7.125000 0.000000 0.000000 4.166643 -1.010052 4.250795 0.000000 0.000000 0.000000 -1.535190 3.916498 40.250841 -28.337134 -39.421642 -10.338276 -12.894135 -6.094930 -3.990981 0.000000 0.000000 0.000000 7.125000 0.000000 0.000000 10.357816 25.864884 4.876385
1.536197 18.536694 0.711770 160.176770 84.856107 170.829214 0.000000 0.000000 0.000000 -17.773152 1.441876 -15.304769 0.643933 5.133431 14.289473 0.031685 -10.422676 -7.805774 1.563934 -7.891650 -22.385399 0.000000 0.000000 0.000000 16.444222 -4.098567 -7.994890 -0.016061 -0.817384 2.246507 -0.040568 5.616971 -5.041424 -0.326772 3.674179 -10.161779 -1.684576 -1.252161 -10.237801 -0.704992 -1.359269 -3.040064 0.052852 -0.632744 2.598066 1.545808 -0.672498 -17.222018 1.006121 -1.468203 18.331209 -0.089862 -0.436323 8.555847 0.000000 0.000000 0.000000 7.994948 6.803208 -25.198348 26.204531 -37.410054 9.011668 35.753996 -191.721745 25.125553 0.000000 0.000000 0.000000 -7.125000 0.000000 0.000000 3.667349 0.010774 3.674175 0.000000 0.000000 0.000000 -3.472771 -2.548626 39.795862 -41.768696 -49.083373 -19.765682 -14.162955 -5.750802 -5.429532 0.000000 0.000000 0.000000 7.125000 0.000000 0.000000 9.315588 24.384638 4.698118
1.501973 18.536455 0.699482 158.370656 85.112600 168.925861 0.000000 0.000000 0.000000 -17.923507 1.622918 -15.362277 0.646955 5.145301 14.323439 0.036125 -10.261241 -7.768954 1.554591 -7.869227 -22.317599 0.000000 0.000000 0.000000 16.265145 -3.790999 -8.023772 -0.017700 -0.859337 2.361886 -0.036954 5.605118 -4.943938 -0.363188 3.871267 -10.714768 -1.785934 -1.216213 -10.530219 -0.819397 -1.289373 -2.899284 -0.007615 -0.601245 2.903603 1.808675 -0.505134 -17.524652 1.449446 -1.411232 17.934590 0.022415 -0.350444 8.479016 0.000000 0.000000 0.000000 8.227153 5.820251 -22.429573 25.144848 -36.351684 8.375625 34.030986 -187.892434 23.154750 0.000000 0.000000 0.000000 -7.125000 0.000000 0.000000 3.008398 2.716133 2.867074 0.000000 0.000000 0.000000 -6.341904 -11.520359 38.045769 -54.102926 -54.521228 -29.484314 -9.467056 3.304474 -5.759129 0.000000 0.000000 0.000000 7.125000 0.000000 0.000000 12.747100 24.149414 6.574341
1.468141 18.534511 0.675999 156.383055 85.052575 166.829329 0.000000 0.000000 0.000000 -18.286806 1.892003 -15.371981 0.632895 5.090104 14.165812 0.025373 -10.437832 -7.717481 1.589480 -7.952310 -22.569691 0.000000 0.000000 0.000000 15.926222 -3.735633 -8.281459 -0.026045 -1.041529 2.863023 -0.043327 5.864981 -5.243214 -0.281965 3.415353 -9.437313 -1.946222 -1.113879 -10.326806 -0.755917 -1.146715 -2.899326 0.170251 -0.531078 2.794128 1.063751 -1.131000 -16.654670 1.969461 -2.142891 16.365007 0.235356 -0.727845 7.811972 0.000000 0.000000 0.000000 8.778909 6.220447 -21.838153 26.343914 -37.546192 9.096477 34.166857 -189.671088 23.033994 0.000000 0.000000 0.000000 -7.125000 0.000000 0.000000 3.106974 2.807097 2.965735 0.000000 0.000000 0.000000 -11.674923 -21.490033 33.603856 -73.545256 -58.947497 -45.800509 -12.589915 16.193881 -8.170479 0.000000 0.000000 0.000000 7.125000 0.000000 0.000000 10.316071 21.659743 5.873702
1.466866 18.542254 0.637595 157.883781 84.321571 168.952421 0.000000 0.000000 0.000000 -18.565425 1.526032 -15.993773 0.616534 5.025337 13.980856 -0.017277 -10.851571 -7.340125 1.599865 -7.977519 -22.645748 0.000000 0.000000 0.000000 15.824437 -4.498502 -8.560263 -0.011430 -0.689710 1.895397 -0.034457 5.622755 -4.889477 -0.286187 3.440424 -9.507387 -1.378353 -1.068029 -9.995054 -0.913940 -1.122641 -3.868615 -0.292950 -0.494572 1.592867 0.905444 -1.815888 -15.992641 1.294855 -2.897224 16.541847 -0.042710 -1.163934 7.747944 0.000000 0.000000 0.000000 10.545854 8.453944 -24.336318 28.194296 -39.294481 10.246541 33.472507 -191.649749 22.998278 0.000000 0.000000 0.000000 -7.125000 0.000000 0.000000 2.690470 3.024420 2.560256 0.000000 0.000000 0.000000 -20.374162 -31.350177 25.208646 -100.168057 -59.601083 -68.793754 -28.876279 24.050722 -8.698968 0.000000 0.000000 0.000000 7.125000 0.000000 0.000000 -1.416445 20.069977 -0.844778
1.502974 18.541741 0.627073 162.209379 83.218616 173.136379 0.000000 0.000000 0.000000 -18.432139 1.473859 -15.933250 0.621183 5.043731 14.033446 -0.095157 -11.780901 -6.836932 1.575674 -7.919644 -22.470410 0.000000 0.000000 0.000000 16.124991 -5.904397 -8.074074 -0.004190 -0.413249 1.135609 -0.034086 5.474259 -4.798118 -0.334082 3.714299 -10.274293 -1.412090 -1.074212 -9.576101 -0.924060 -1.130139 -4.154413 -0.275220 -0.490484 1.067908 0.343311 -2.350241 -16.391154 1.679842 -3.576109 16.548267 0.094420 -1.482470 7.839273 0.000000 0.000000 0.000000 10.544475 9.844470 -21.514596 27.218353 -38.386616 9.634428 34.074901 -193.570807 23.789502 0.000000 0.000000 0.000000 -7.125000 0.000000 0.000000 2.921165 1.989181 2.821742 0.000000 0.000000 0.000000 -30.485336 -36.769991 13.699746 -121.655081 -55.850317 -87.031837 -37.336489 22.594620 -12.457058 0.000000 0.000000 0.000000 7.125000 0.000000 0.000000 -6.861079 14.529760 -4.957114
1.568487 18.539612 0.618811 163.226357 82.583692 174.187185 0.000000 0.000000 0.000000 -18.478364 1.396650 -15.723797 0.616329 5.024508 13.978545 -0.125189 -12.263792 -6.776622 1.597547 -7.972049 -22.629161 0.000000 0.000000 0.000000 16.162777 -6.668389 -7.887267 -0.002716 -0.329298 0.904866 -0.040196 5.466968 -4.952593 -0.370562 3.909922 -10.823347 -1.621971 -1.150825 -9.788239 -1.067658 -1.198102 -4.199707 -0.316032 -0.520098 1.138605 0.582853 -2.218905 -16.771827 1.881804 -3.504265 16.723444 0.125299 -1.405822 7.964255 0.000000 0.000000 0.000000 11.122267 11.696857 -21.883295 26.480502 -37.679326 9.179790 34.271617 -193.537154 24.058055 0.000000 0.000000 0.000000 -7.125000 0.000000 0.000000 2.990302 1.633874 2.907842 0.000000 0.000000 0.000000 -35.224156 -36.055654 8.249694 -132.297985 -52.025540 -95.649456 -43.287335 17.321763 -15.371871 0.000000 0.000000 0.000000 7.125000 0.000000 0.000000 -10.203819 9.548618 -8.509550
